<svg width="35" height="30" viewBox="0 0 35 30" fill="none" xmlns="http://www.w3.org/2000/svg">
<path d="M16.1558 29.5243C16.7845 30.1586 17.756 30.1586 18.3276 29.5243L20.5565 27.2753C19.0133 25.6033 18.0418 23.2964 18.0418 20.8745C18.0418 15.6269 22.271 11.4175 27.4145 11.4175C29.7003 11.4175 31.8152 12.2823 33.4724 13.6664C35.3014 10.1489 34.7297 5.7086 31.8152 2.76781C30.0436 0.980301 27.6433 0.0575618 25.2431 0.0575618C22.8998 0.0575618 20.4996 0.980291 18.7279 2.76781L17.1847 4.32486L15.6416 2.76781C13.9269 0.922739 11.5267 0 9.18342 0C6.72615 0 4.32541 0.980249 2.49679 2.88324C-0.989403 6.57378 -0.761005 12.4557 2.78262 16.0308L16.1558 29.5243Z" fill="#FD7175"/>
</svg>
