<svg width="17" height="14" viewBox="0 0 17 14" fill="none" xmlns="http://www.w3.org/2000/svg">
<path d="M8.50969 2.7697L8.95244 3.58116L9.38926 2.7665C9.89626 1.82095 10.9258 0.54541 12.7232 0.54541H12.7493C14.7112 0.562576 16.3907 2.20331 16.4922 4.32114L16.4922 4.3216C16.5549 5.60533 16.0709 6.69869 15.1026 7.85667C14.125 9.02566 12.697 10.211 10.9234 11.6831L10.8941 11.7074L10.8941 11.7074L10.8918 11.7094C10.6764 11.8903 10.4533 12.0762 10.2247 12.2668C9.81295 12.6099 9.3833 12.968 8.94856 13.3389C8.56096 13.0126 8.18343 12.6965 7.81855 12.3909C7.53977 12.1575 7.26837 11.9302 7.0055 11.7094L7.0032 11.7074L6.97335 11.6827C5.20001 10.2107 3.7721 9.02554 2.79458 7.85666C1.82618 6.69867 1.34213 5.60532 1.40483 4.3216L1.40485 4.32112C1.5063 2.20194 3.17792 0.562594 5.13847 0.54541H5.17406C6.97038 0.54541 7.99101 1.81907 8.50969 2.7697Z" fill="white" stroke="#002F47"/>
</svg>
