<svg width="18" height="19" viewBox="0 0 18 19" fill="none" xmlns="http://www.w3.org/2000/svg">
<path d="M17.441 15.503C16.0806 14.3317 15.3001 12.6184 15.3001 10.8046V8.24999C15.3001 5.02432 12.9473 2.35388 9.9004 1.90707V0.917113C9.9004 0.409881 9.49667 0 9 0C8.50333 0 8.0996 0.409881 8.0996 0.917113V1.90707C5.05138 2.35388 2.69987 5.02432 2.69987 8.24999V10.806C2.69987 12.6197 1.91944 14.3317 0.550718 15.5114C0.20104 15.8165 0 16.2606 0 16.7296C0 17.6138 0.705947 18.3342 1.57536 18.3342H16.4246C17.2927 18.3342 18 17.6151 18 16.7296C18 16.2606 17.799 15.8165 17.441 15.503Z" fill="#9C9C9C"/>
</svg>
